<svg xmlns="http://www.w3.org/2000/svg" xmlns:xlink="http://www.w3.org/1999/xlink" width="36" height="39" viewBox="0 0 36 39"><defs><filter id="b" width="100%" height="100%" x="0%" y="0%" filterUnits="objectBoundingBox"><feOffset in="SourceAlpha" result="shadowOffsetOuter1"/><feColorMatrix in="shadowOffsetOuter1" values="0 0 0 0 0 0 0 0 0 0 0 0 0 0 0 0 0 0 0.300921247 0"/></filter><path id="a" d="M34.5,39 C40.8512746,39 46,35.6421356 46,31.5 C46,27.3578644 40.8512746,24 34.5,24 C28.1487254,24 25,27 23,31.5 C22.2467623,33.1947849 23.5133676,34.8416483 23,38 C27.5133676,38.8416483 30.8477845,39 34.5,39 Z"/></defs><g fill="none" fill-rule="evenodd" transform="translate(-10)"><use xlink:href="#a" fill="#000" filter="url(#b)"/><path fill="#A0148C" d="M10,13.3 C10,23.275 23,38 23,38 C23,38 36,23.275 36,13.3 C36,5.9565 30.1778571,0 23,0 C15.8221429,0 10,5.9565 10,13.3 Z"/><polygon points="0 -3 46 -3 46 42 0 42"/><g transform="translate(11 2)"><rect width="24" height="24"/><path fill="#FFF" d="M5.6925,4.5 C6.05301075,4.55107337 6.39690618,4.68452533 6.6975,4.89 C7.50113802,5.38330389 8.20155224,6.02768497 8.76,6.7875 C9.075,7.215 9.135,7.5375 9.0975,7.5975 L9.0975,7.5975 C8.9904054,7.74605244 8.86144513,7.87754135 8.715,7.9875 C8.23685146,8.34229347 7.89525164,8.85072111 7.7475,9.4275 C7.64174562,10.0676852 7.79560572,10.7236151 8.175,11.25 C8.73494864,12.1777613 9.39927423,13.0383649 10.155,13.815 L10.155,13.815 C10.940401,14.5797411 11.8111176,15.2516524 12.75,15.8175 C13.1697029,16.1162957 13.6676611,16.2857579 14.1825,16.305 C14.2947713,16.3151456 14.4077287,16.3151456 14.52,16.305 C15.121123,16.1667554 15.6530878,15.8183184 16.02,15.3225 C16.1343328,15.1747557 16.2709687,15.0457106 16.425,14.94 L16.4625,14.94 L16.5075,14.94 C16.7869001,14.9806066 17.0479408,15.1032957 17.2575,15.2925 C18.0165478,15.849529 18.6587177,16.5503096 19.1475,17.355 C19.3248466,17.6334391 19.4446983,17.9445436 19.5,18.27 L19.5,18.27 C19.5224028,18.498188 19.4261199,18.7219041 19.245,18.8625 C18.4663855,19.3440141 17.5555108,19.567139 16.6425,19.5 C16.240329,19.5051609 15.8385628,19.4725174 15.4425,19.4025 C14.010102,19.0533246 12.6631069,18.4180939 11.4825,17.535 C10.509069,16.8623639 9.59339901,16.1097584 8.745,15.285 C7.91960822,14.4237624 7.16703122,13.495584 6.495,12.51 C5.61602792,11.333454 4.98341199,9.99169601 4.635,8.565 C4.4475,7.635 4.47,5.565 5.175,4.755 C5.2929231,4.59948827 5.47491826,4.50573319 5.67,4.5 L5.67,4.5 M5.67,3 C5.02837597,2.98721919 4.41473546,3.2623943 3.9975,3.75 C2.835,5.1 2.91,7.755 3.1275,8.8275 C3.51526722,10.4543283 4.22973755,11.9853361 5.2275,13.3275 C5.95375931,14.3945874 6.76917934,15.3981812 7.665,16.3275 C8.58293854,17.2165138 9.57392142,18.0268618 10.6275,18.75 C11.9696639,19.7477624 13.5006717,20.4622328 15.1275,20.85 C15.6227177,20.93699 16.1247046,20.9796589 16.6275,20.9775 C17.9104227,21.0705461 19.187101,20.7269267 20.25,20.0025 C20.7722338,19.5528418 21.0504693,18.8822943 21,18.195 L21,18.195 C20.9338622,17.5888639 20.7229323,17.0075204 20.385,16.5 C19.7920489,15.5309703 19.0148968,14.6875692 18.0975,14.0175 C17.6353333,13.6285552 17.0583305,13.4019696 16.455,13.3725 C16.2391727,13.3709105 16.0251303,13.4116805 15.825,13.4925 C15.4378153,13.6703592 15.1003824,13.9408207 14.8425,14.28 C14.625,14.5275 14.4375,14.7375 14.2275,14.775 L14.16,14.775 C13.9267622,14.7415866 13.7052865,14.6514511 13.515,14.5125 C12.6953371,14.0131828 11.9354089,13.4218479 11.25,12.75 C10.5658865,12.0713424 9.96193376,11.3164014 9.45,10.5 C9.28850874,10.3006623 9.20105098,10.0515402 9.2025,9.795 C9.24,9.5925 9.45,9.405 9.6975,9.1875 C10.0217086,8.93004755 10.2789927,8.59815109 10.4475,8.22 C10.7022677,7.43191751 10.5034718,6.56758742 9.93,5.97 C9.25825148,5.06428378 8.41469958,4.29973522 7.4475,3.72 C6.96378605,3.35494608 6.40124122,3.10835109 5.805,3 L5.67,3 Z"/></g></g></svg>